<svg xmlns="http://www.w3.org/2000/svg" viewBox="0 0 48 48" width="96px" height="96px">
  <path fill="#99c599" d="M40.7,32c-2.2,0-4.2-1.4-4.6-3.6c-0.6-2.9,1.6-5.4,4.4-5.4c0.7,0,1.6,0,2.5,0v-8c0-1.1-0.9-2-2-2h-8v-1.3	c0-2.2-1.4-4.2-3.6-4.6C26.5,6.5,24,8.7,24,11.5c0,0.5,0,1,0,1.5h-8c-1.1,0-2,0.9-2,2v8l-1.3,0c-2.2,0-4.2,1.4-4.6,3.6	C7.5,29.5,9.7,32,12.5,32c0.3,0,0.9,0,1.5,0v8c0,1.1,0.9,2,2,2h8l0,1.3c0,2.2,1.4,4.2,3.6,4.6c2.9,0.6,5.4-1.6,5.4-4.4	c0-0.3,0-0.9,0-1.5h8c1.1,0,2-0.9,2-2v-8H40.7z" />
  <path fill="none" stroke="#ffffff" stroke-linecap="round" stroke-linejoin="round" stroke-miterlimit="10" stroke-width="3" d="M35.1,38.5h2.4c1.1,0,2-0.9,2-2v-8c-1.1,0-2.1,0-2.5,0c-2.5,0-4.5-2-4.5-4.5s2-4.5,4.5-4.5c0.7,0,1.6,0,2.5,0	v-8c0-1.1-0.9-2-2-2h-8c0-0.6,0-1.2,0-1.5c0-2.5-2-4.5-4.5-4.5s-4.5,2-4.5,4.5c0,0.5,0,1,0,1.5" />
  <path fill="none" stroke="#ffffff" stroke-linecap="round" stroke-linejoin="round" stroke-miterlimit="10" stroke-width="3" d="M14.6,9.5h-2.1c-1.1,0-2,0.9-2,2v8c-0.5,0-1.1,0-1.5,0c-2.5,0-4.5,2-4.5,4.5s2,4.5,4.5,4.5c0.3,0,0.9,0,1.5,0	v8c0,1.1,0.9,2,2,2h8c0,0.5,0,1,0,1.5c0,2.5,2,4.5,4.5,4.5s4.5-2,4.5-4.5c0-0.3,0-0.9,0-1.5" />
</svg>